<svg xmlns="http://www.w3.org/2000/svg" width="860" height="300" viewBox="0 0 860 300" font-family="ui-sans-serif,system-ui,sans-serif">
<line x1="56" y1="239.6" x2="844" y2="239.6" stroke="#8b949e" stroke-opacity="0.18"/><text x="48" y="243.6" text-anchor="end" font-size="11" fill="#8b949e">$0</text><line x1="56" y1="179.0" x2="844" y2="179.0" stroke="#8b949e" stroke-opacity="0.18"/><text x="48" y="183.0" text-anchor="end" font-size="11" fill="#8b949e">$10</text><line x1="56" y1="118.4" x2="844" y2="118.4" stroke="#8b949e" stroke-opacity="0.18"/><text x="48" y="122.4" text-anchor="end" font-size="11" fill="#8b949e">$20</text><line x1="56" y1="57.8" x2="844" y2="57.8" stroke="#8b949e" stroke-opacity="0.18"/><text x="48" y="61.8" text-anchor="end" font-size="11" fill="#8b949e">$30</text><text x="56.0" y="290" text-anchor="middle" font-size="11" fill="#8b949e">Jul 03</text><text x="219.0" y="290" text-anchor="middle" font-size="11" fill="#8b949e">Jul 04</text><text x="382.1" y="290" text-anchor="middle" font-size="11" fill="#8b949e">Jul 05</text><text x="545.1" y="290" text-anchor="middle" font-size="11" fill="#8b949e">Jul 06</text><text x="708.1" y="290" text-anchor="middle" font-size="11" fill="#8b949e">Jul 07</text>
<polygon points="56.0,239.6 56.0,239.6 62.8,239.6 69.6,239.6 76.4,239.6 83.2,239.6 90.0,239.6 96.8,239.6 103.6,239.6 110.3,239.6 117.1,239.6 123.9,239.6 130.7,239.6 137.5,239.6 144.3,239.6 151.1,239.6 157.9,239.5 164.7,239.6 171.5,239.6 178.3,239.6 185.1,239.6 191.9,239.6 198.7,239.6 205.4,241.2 212.2,248.9 219.0,228.7 225.8,227.6 232.6,227.9 239.4,232.2 246.2,166.9 253.0,165.2 259.8,156.4 266.6,153.4 273.4,163.7 280.2,163.7 287.0,163.7 293.8,163.7 300.6,163.7 307.3,167.2 314.1,163.2 320.9,171.9 327.7,171.9 334.5,171.9 341.3,171.9 348.1,171.9 354.9,171.9 361.7,172.2 368.5,185.1 375.3,136.2 382.1,110.3 388.9,110.5 395.7,106.7 402.4,80.8 409.2,78.5 416.0,78.5 422.8,78.5 429.6,78.3 436.4,87.8 443.2,81.0 450.0,106.5 456.8,114.7 463.6,114.7 470.4,114.7 477.2,114.7 484.0,114.7 490.8,114.7 497.6,114.7 504.3,114.7 511.1,114.7 517.9,114.7 524.7,114.7 531.5,114.7 538.3,114.7 545.1,114.7 551.9,114.7 558.7,114.7 565.5,114.7 572.3,114.7 579.1,114.7 585.9,114.7 592.7,114.7 599.4,114.7 606.2,114.7 613.0,114.7 619.8,114.7 626.6,114.7 633.4,114.7 640.2,114.7 647.0,114.7 653.8,114.7 660.6,114.7 667.4,115.2 674.2,115.2 681.0,115.2 687.8,114.4 694.6,116.1 701.3,116.5 708.1,95.8 714.9,44.4 721.7,36.8 728.5,35.4 735.3,35.1 742.1,48.2 748.9,71.3 755.7,70.9 762.5,70.9 769.3,70.9 776.1,70.9 782.9,70.9 789.7,70.9 796.4,70.9 803.2,70.9 810.0,70.9 816.8,70.9 823.6,70.9 830.4,70.9 837.2,70.4 844.0,70.6 844.0,239.6" fill="#22c55e" fill-opacity="0.10"/>
<polyline points="56.0,239.6 62.8,239.6 69.6,239.6 76.4,239.6 83.2,239.6 90.0,239.6 96.8,239.6 103.6,239.6 110.3,239.6 117.1,239.6 123.9,239.6 130.7,239.6 137.5,239.6 144.3,239.6 151.1,239.6 157.9,239.5 164.7,239.6 171.5,239.6 178.3,239.6 185.1,239.6 191.9,239.6 198.7,239.6 205.4,241.2 212.2,248.9 219.0,228.7 225.8,227.6 232.6,227.9 239.4,232.2 246.2,166.9 253.0,165.2 259.8,156.4 266.6,153.4 273.4,163.7 280.2,163.7 287.0,163.7 293.8,163.7 300.6,163.7 307.3,167.2 314.1,163.2 320.9,171.9 327.7,171.9 334.5,171.9 341.3,171.9 348.1,171.9 354.9,171.9 361.7,172.2 368.5,185.1 375.3,136.2 382.1,110.3 388.9,110.5 395.7,106.7 402.4,80.8 409.2,78.5 416.0,78.5 422.8,78.5 429.6,78.3 436.4,87.8 443.2,81.0 450.0,106.5 456.8,114.7 463.6,114.7 470.4,114.7 477.2,114.7 484.0,114.7 490.8,114.7 497.6,114.7 504.3,114.7 511.1,114.7 517.9,114.7 524.7,114.7 531.5,114.7 538.3,114.7 545.1,114.7 551.9,114.7 558.7,114.7 565.5,114.7 572.3,114.7 579.1,114.7 585.9,114.7 592.7,114.7 599.4,114.7 606.2,114.7 613.0,114.7 619.8,114.7 626.6,114.7 633.4,114.7 640.2,114.7 647.0,114.7 653.8,114.7 660.6,114.7 667.4,115.2 674.2,115.2 681.0,115.2 687.8,114.4 694.6,116.1 701.3,116.5 708.1,95.8 714.9,44.4 721.7,36.8 728.5,35.4 735.3,35.1 742.1,48.2 748.9,71.3 755.7,70.9 762.5,70.9 769.3,70.9 776.1,70.9 782.9,70.9 789.7,70.9 796.4,70.9 803.2,70.9 810.0,70.9 816.8,70.9 823.6,70.9 830.4,70.9 837.2,70.4 844.0,70.6" fill="none" stroke="#22c55e" stroke-width="2.2" stroke-linejoin="round"/>
<circle cx="844.0" cy="70.6" r="3.5" fill="#22c55e"/>
<text x="838.0" y="61.6" text-anchor="end" font-size="13" font-weight="600" fill="#22c55e">+$27.88</text>
<text x="56" y="12" font-size="11" fill="#8b949e">cumulative P&amp;L, USD (Polymarket accounting, hourly) — bot run Jul 3&#8211;7, 2026</text>
</svg>