<svg xmlns="http://www.w3.org/2000/svg" width="860" height="300" viewBox="0 0 860 300" font-family="ui-sans-serif,system-ui,sans-serif">
<line x1="56" y1="241.5" x2="844" y2="241.5" stroke="#8b949e" stroke-opacity="0.18"/><text x="48" y="245.5" text-anchor="end" font-size="11" fill="#8b949e">$0</text><line x1="56" y1="187.9" x2="844" y2="187.9" stroke="#8b949e" stroke-opacity="0.18"/><text x="48" y="191.9" text-anchor="end" font-size="11" fill="#8b949e">$10</text><line x1="56" y1="134.4" x2="844" y2="134.4" stroke="#8b949e" stroke-opacity="0.18"/><text x="48" y="138.4" text-anchor="end" font-size="11" fill="#8b949e">$20</text><line x1="56" y1="80.9" x2="844" y2="80.9" stroke="#8b949e" stroke-opacity="0.18"/><text x="48" y="84.9" text-anchor="end" font-size="11" fill="#8b949e">$30</text><text x="56.0" y="290" text-anchor="middle" font-size="11" fill="#8b949e">Jul 03</text><text x="215.1" y="290" text-anchor="middle" font-size="11" fill="#8b949e">Jul 04</text><text x="374.2" y="290" text-anchor="middle" font-size="11" fill="#8b949e">Jul 05</text><text x="533.3" y="290" text-anchor="middle" font-size="11" fill="#8b949e">Jul 06</text><text x="692.4" y="290" text-anchor="middle" font-size="11" fill="#8b949e">Jul 07</text>
<polygon points="56.0,241.5 56.0,241.5 62.6,241.5 69.3,241.5 75.9,241.5 82.5,241.5 89.1,241.5 95.8,241.5 102.4,241.5 109.0,241.5 115.7,241.5 122.3,241.5 128.9,241.5 135.6,241.5 142.2,241.5 148.8,241.5 155.4,241.4 162.1,241.5 168.7,241.5 175.3,241.5 182.0,241.5 188.6,241.5 195.2,241.5 201.8,243.0 208.5,249.7 215.1,231.9 221.7,230.9 228.4,231.2 235.0,235.0 241.6,177.3 248.3,175.7 254.9,168.0 261.5,165.3 268.1,174.4 274.8,174.4 281.4,174.4 288.0,174.4 294.7,174.4 301.3,177.6 307.9,174.0 314.5,181.7 321.2,181.7 327.8,181.7 334.4,181.7 341.1,181.7 347.7,181.7 354.3,182.0 361.0,193.3 367.6,150.1 374.2,127.3 380.8,127.4 387.5,124.0 394.1,101.2 400.7,99.2 407.4,99.2 414.0,99.2 420.6,99.0 427.2,107.4 433.9,101.4 440.5,123.9 447.1,131.1 453.8,131.1 460.4,131.1 467.0,131.1 473.7,131.1 480.3,131.1 486.9,131.1 493.5,131.1 500.2,131.1 506.8,131.1 513.4,131.1 520.1,131.1 526.7,131.1 533.3,131.1 539.9,131.1 546.6,131.1 553.2,131.1 559.8,131.1 566.5,131.1 573.1,131.1 579.7,131.1 586.4,131.1 593.0,131.1 599.6,131.1 606.2,131.1 612.9,131.1 619.5,131.1 626.1,131.1 632.8,131.1 639.4,131.1 646.0,131.1 652.6,131.6 659.3,131.6 665.9,131.6 672.5,130.9 679.2,132.4 685.8,132.8 692.4,114.4 699.1,69.1 705.7,62.3 712.3,61.1 718.9,60.8 725.6,72.4 732.2,92.8 738.8,92.4 745.5,92.4 752.1,92.4 758.7,92.4 765.3,92.4 772.0,92.4 778.6,92.4 785.2,92.4 791.9,92.4 798.5,92.4 805.1,92.4 811.8,92.4 818.4,92.0 825.0,92.2 831.6,46.3 838.3,150.1 844.0,241.5" fill="#22c55e" fill-opacity="0.10"/>
<polyline points="56.0,241.5 62.6,241.5 69.3,241.5 75.9,241.5 82.5,241.5 89.1,241.5 95.8,241.5 102.4,241.5 109.0,241.5 115.7,241.5 122.3,241.5 128.9,241.5 135.6,241.5 142.2,241.5 148.8,241.5 155.4,241.4 162.1,241.5 168.7,241.5 175.3,241.5 182.0,241.5 188.6,241.5 195.2,241.5 201.8,243.0 208.5,249.7 215.1,231.9 221.7,230.9 228.4,231.2 235.0,235.0 241.6,177.3 248.3,175.7 254.9,168.0 261.5,165.3 268.1,174.4 274.8,174.4 281.4,174.4 288.0,174.4 294.7,174.4 301.3,177.6 307.9,174.0 314.5,181.7 321.2,181.7 327.8,181.7 334.4,181.7 341.1,181.7 347.7,181.7 354.3,182.0 361.0,193.3 367.6,150.1 374.2,127.3 380.8,127.4 387.5,124.0 394.1,101.2 400.7,99.2 407.4,99.2 414.0,99.2 420.6,99.0 427.2,107.4 433.9,101.4 440.5,123.9 447.1,131.1 453.8,131.1 460.4,131.1 467.0,131.1 473.7,131.1 480.3,131.1 486.9,131.1 493.5,131.1 500.2,131.1 506.8,131.1 513.4,131.1 520.1,131.1 526.7,131.1 533.3,131.1 539.9,131.1 546.6,131.1 553.2,131.1 559.8,131.1 566.5,131.1 573.1,131.1 579.7,131.1 586.4,131.1 593.0,131.1 599.6,131.1 606.2,131.1 612.9,131.1 619.5,131.1 626.1,131.1 632.8,131.1 639.4,131.1 646.0,131.1 652.6,131.6 659.3,131.6 665.9,131.6 672.5,130.9 679.2,132.4 685.8,132.8 692.4,114.4 699.1,69.1 705.7,62.3 712.3,61.1 718.9,60.8 725.6,72.4 732.2,92.8 738.8,92.4 745.5,92.4 752.1,92.4 758.7,92.4 765.3,92.4 772.0,92.4 778.6,92.4 785.2,92.4 791.9,92.4 798.5,92.4 805.1,92.4 811.8,92.4 818.4,92.0 825.0,92.2 831.6,46.3 838.3,150.1" fill="none" stroke="#22c55e" stroke-width="2.2" stroke-linejoin="round"/>
<circle cx="838.3" cy="150.1" r="3.5" fill="#22c55e"/>
<text x="832.3" y="141.1" text-anchor="end" font-size="13" font-weight="600" fill="#22c55e">+$17.06 Polymarket accounting</text>
<line x1="838.3" y1="150.1" x2="844.0" y2="170.5" stroke="#ef4444" stroke-width="2" stroke-dasharray="5 4"/><circle cx="844.0" cy="170.5" r="3.5" fill="#ef4444"/><text x="838.0" y="188.5" text-anchor="end" font-size="13" font-weight="600" fill="#ef4444">+$13.26 at CLOB-midpoint marks now</text>
<text x="56" y="12" font-size="11" fill="#8b949e">cumulative P&amp;L, USD (Polymarket accounting, hourly) — bot run Jul 3&#8211;7, 2026</text>
<text x="56" y="24" font-size="11" fill="#8b949e">red = live equity at midpoints; the hourly series marks tonight&#8217;s unresolved legs at pre-crash prices and converges down when they resolve on-chain</text>
</svg>