<svg xmlns="http://www.w3.org/2000/svg" width="860" height="300" viewBox="0 0 860 300" font-family="ui-sans-serif,system-ui,sans-serif">
<line x1="56" y1="240.8" x2="844" y2="240.8" stroke="#8b949e" stroke-opacity="0.18"/><text x="48" y="244.8" text-anchor="end" font-size="11" fill="#8b949e">$0</text><line x1="56" y1="183.2" x2="844" y2="183.2" stroke="#8b949e" stroke-opacity="0.18"/><text x="48" y="187.2" text-anchor="end" font-size="11" fill="#8b949e">$10</text><line x1="56" y1="125.5" x2="844" y2="125.5" stroke="#8b949e" stroke-opacity="0.18"/><text x="48" y="129.5" text-anchor="end" font-size="11" fill="#8b949e">$20</text><line x1="56" y1="67.9" x2="844" y2="67.9" stroke="#8b949e" stroke-opacity="0.18"/><text x="48" y="71.9" text-anchor="end" font-size="11" fill="#8b949e">$30</text><text x="56.0" y="290" text-anchor="middle" font-size="11" fill="#8b949e">Jul 03</text><text x="217.2" y="290" text-anchor="middle" font-size="11" fill="#8b949e">Jul 04</text><text x="378.4" y="290" text-anchor="middle" font-size="11" fill="#8b949e">Jul 05</text><text x="539.6" y="290" text-anchor="middle" font-size="11" fill="#8b949e">Jul 06</text><text x="700.8" y="290" text-anchor="middle" font-size="11" fill="#8b949e">Jul 07</text>
<polygon points="56.0,240.8 56.0,240.8 62.7,240.8 69.4,240.8 76.1,240.8 82.9,240.8 89.6,240.8 96.3,240.8 103.0,240.8 109.7,240.8 116.4,240.8 123.2,240.8 129.9,240.8 136.6,240.8 143.3,240.8 150.0,240.9 156.7,240.8 163.5,240.8 170.2,240.8 176.9,240.8 183.6,240.8 190.3,240.8 197.0,240.8 203.8,242.4 210.5,249.7 217.2,230.5 223.9,229.4 230.6,229.8 237.3,233.9 244.1,171.7 250.8,170.0 257.5,161.7 264.2,158.8 270.9,168.7 277.6,168.7 284.4,168.7 291.1,168.7 297.8,168.7 304.5,172.0 311.2,168.1 317.9,176.4 324.7,176.4 331.4,176.4 338.1,176.5 344.8,176.5 351.5,176.5 358.2,176.7 365.0,189.0 371.7,142.5 378.4,117.8 385.1,118.0 391.8,114.4 398.5,89.7 405.3,87.6 412.0,87.6 418.7,87.6 425.4,87.4 432.1,96.4 438.8,89.9 445.5,114.2 452.3,122.0 459.0,122.0 465.7,122.0 472.4,122.0 479.1,122.0 485.8,122.0 492.6,122.0 499.3,122.0 506.0,122.0 512.7,122.0 519.4,122.0 526.1,122.0 532.9,122.0 539.6,122.0 546.3,122.0 553.0,122.0 559.7,122.0 566.4,122.0 573.2,122.0 579.9,122.0 586.6,122.0 593.3,122.0 600.0,122.0 606.7,122.0 613.5,122.0 620.2,122.0 626.9,122.0 633.6,122.0 640.3,122.0 647.0,122.0 653.8,122.0 660.5,122.5 667.2,122.5 673.9,122.5 680.6,121.8 687.3,123.4 694.1,123.7 700.8,104.0 707.5,55.1 714.2,47.8 720.9,46.6 727.6,46.3 734.4,58.7 741.1,80.7 747.8,80.3 754.5,80.3 761.2,80.3 767.9,80.3 774.6,80.3 781.4,80.3 788.1,80.3 794.8,80.3 801.5,80.3 808.2,80.3 814.9,80.3 821.7,80.3 828.4,79.8 835.1,80.1 844.0,240.8" fill="#22c55e" fill-opacity="0.10"/>
<polyline points="56.0,240.8 62.7,240.8 69.4,240.8 76.1,240.8 82.9,240.8 89.6,240.8 96.3,240.8 103.0,240.8 109.7,240.8 116.4,240.8 123.2,240.8 129.9,240.8 136.6,240.8 143.3,240.8 150.0,240.9 156.7,240.8 163.5,240.8 170.2,240.8 176.9,240.8 183.6,240.8 190.3,240.8 197.0,240.8 203.8,242.4 210.5,249.7 217.2,230.5 223.9,229.4 230.6,229.8 237.3,233.9 244.1,171.7 250.8,170.0 257.5,161.7 264.2,158.8 270.9,168.7 277.6,168.7 284.4,168.7 291.1,168.7 297.8,168.7 304.5,172.0 311.2,168.1 317.9,176.4 324.7,176.4 331.4,176.4 338.1,176.5 344.8,176.5 351.5,176.5 358.2,176.7 365.0,189.0 371.7,142.5 378.4,117.8 385.1,118.0 391.8,114.4 398.5,89.7 405.3,87.6 412.0,87.6 418.7,87.6 425.4,87.4 432.1,96.4 438.8,89.9 445.5,114.2 452.3,122.0 459.0,122.0 465.7,122.0 472.4,122.0 479.1,122.0 485.8,122.0 492.6,122.0 499.3,122.0 506.0,122.0 512.7,122.0 519.4,122.0 526.1,122.0 532.9,122.0 539.6,122.0 546.3,122.0 553.0,122.0 559.7,122.0 566.4,122.0 573.2,122.0 579.9,122.0 586.6,122.0 593.3,122.0 600.0,122.0 606.7,122.0 613.5,122.0 620.2,122.0 626.9,122.0 633.6,122.0 640.3,122.0 647.0,122.0 653.8,122.0 660.5,122.5 667.2,122.5 673.9,122.5 680.6,121.8 687.3,123.4 694.1,123.7 700.8,104.0 707.5,55.1 714.2,47.8 720.9,46.6 727.6,46.3 734.4,58.7 741.1,80.7 747.8,80.3 754.5,80.3 761.2,80.3 767.9,80.3 774.6,80.3 781.4,80.3 788.1,80.3 794.8,80.3 801.5,80.3 808.2,80.3 814.9,80.3 821.7,80.3 828.4,79.8 835.1,80.1" fill="none" stroke="#22c55e" stroke-width="2.2" stroke-linejoin="round"/>
<circle cx="835.1" cy="80.1" r="3.5" fill="#22c55e"/>
<text x="829.1" y="71.1" text-anchor="end" font-size="13" font-weight="600" fill="#22c55e">+$27.88 Polymarket accounting</text>
<line x1="835.1" y1="80.1" x2="844.0" y2="161.7" stroke="#ef4444" stroke-width="2" stroke-dasharray="5 4"/><circle cx="844.0" cy="161.7" r="3.5" fill="#ef4444"/><text x="838.0" y="179.7" text-anchor="end" font-size="13" font-weight="600" fill="#ef4444">+$13.73 at CLOB-midpoint marks now</text>
<text x="56" y="12" font-size="11" fill="#8b949e">cumulative P&amp;L, USD (Polymarket accounting, hourly) — bot run Jul 3&#8211;7, 2026</text>
<text x="56" y="24" font-size="11" fill="#8b949e">red = live equity at midpoints; the hourly series marks tonight&#8217;s unresolved legs at pre-crash prices and converges down when they resolve on-chain</text>
</svg>